<svg width="17" height="16" viewBox="0 0 17 16" fill="none" xmlns="http://www.w3.org/2000/svg">
<g clip-path="url(#clip0_1573_820)">
<path d="M8.49988 -0.000244141C4.08189 -0.000244141 0.5 3.58142 0.5 7.99941C0.5 12.4174 4.08189 15.9998 8.49988 15.9998C12.9179 15.9998 16.4998 12.4179 16.4998 7.99941C16.4998 3.58096 12.9183 -0.000244141 8.49988 -0.000244141ZM8.49988 14.7265C4.79069 14.7265 1.77344 11.7088 1.77344 7.99941C1.77344 4.28999 4.79069 1.27296 8.49988 1.27296C12.2091 1.27296 15.2263 4.29068 15.2263 7.99918C15.2263 11.7077 12.2091 14.7263 8.49988 14.7263V14.7265Z" fill="#333333"/>
<path d="M9.04553 8.89461C9.04553 9.22924 9.04156 9.50051 8.48897 9.49975C7.93727 9.49975 7.93418 9.2283 7.93462 8.89349L7.5 3.10471C7.49978 2.76971 7.94917 2.49957 8.5 2.49976C9.05325 2.49994 9.50066 2.77215 9.5 3.10678L9.04553 8.89461Z" fill="#333333"/>
<path d="M9.41404 11.6518C9.41404 12.1541 9.00604 12.5621 8.50401 12.5621C8.00198 12.5621 7.59375 12.1541 7.59375 11.6518C7.59375 11.1495 8.00129 10.7429 8.50401 10.7429C9.00673 10.7429 9.41404 11.1502 9.41404 11.6518Z" fill="#333333"/>
</g>
<defs>
<clipPath id="clip0_1573_820">
<rect width="16" height="16" fill="white" transform="translate(0.5)"/>
</clipPath>
</defs>
</svg>
